<svg width="24" height="24" viewBox="0 0 24 24" fill="none" xmlns="http://www.w3.org/2000/svg">
<g clip-path="url(#clip0_4729_12923)">
<path d="M4.826 9.12988H19.174C19.6765 9.12988 20.1741 9.22888 20.6384 9.42122C21.1026 9.61355 21.5245 9.89546 21.8797 10.2508C22.235 10.6062 22.5168 11.0281 22.709 11.4924C22.9013 11.9567 23.0001 12.4544 23 12.9569V17.7389C23 17.9927 22.8992 18.2361 22.7197 18.4156C22.5402 18.5951 22.2968 18.6959 22.043 18.6959H1.957C1.83129 18.696 1.70678 18.6714 1.59062 18.6233C1.47445 18.5753 1.3689 18.5048 1.28001 18.4159C1.19111 18.327 1.12063 18.2214 1.07258 18.1053C1.02453 17.9891 0.999869 17.8646 1 17.7389V12.9559C1 11.9412 1.4031 10.968 2.12061 10.2505C2.83812 9.53298 3.81128 9.12988 4.826 9.12988Z" fill="#FF808C"/>
<path d="M22.8801 11.9999C22.6681 11.1783 22.189 10.4504 21.5181 9.93091C20.8472 9.41136 20.0226 9.12958 19.1741 9.12988H4.82712C3.97842 9.12936 3.15363 9.41104 2.48255 9.9306C1.81146 10.4502 1.33218 11.1781 1.12012 11.9999H22.8801Z" fill="#FFBFC5"/>
<path d="M2.91388 13.913H5.78388L5.30488 12H1.12188C1.05728 12.2555 1.01809 12.5168 1.00488 12.78C1.18999 13.1248 1.46569 13.4125 1.80227 13.6122C2.13886 13.8119 2.52255 13.9159 2.91388 13.913ZM18.6959 12L18.2179 13.913H21.0879C21.4795 13.9149 21.8644 13.8103 22.2011 13.6104C22.5379 13.4105 22.814 13.1228 22.9999 12.778C22.9856 12.5154 22.9454 12.2548 22.8799 12H18.6959Z" fill="#FFEF5E"/>
<path d="M4.3479 9.12962L5.0379 4.98962C5.11202 4.54192 5.34313 4.13524 5.68981 3.84242C6.0365 3.54961 6.47611 3.3898 6.9299 3.39162H17.0759C17.5288 3.39126 17.9671 3.55186 18.3126 3.84475C18.658 4.13764 18.8882 4.54376 18.9619 4.99062L19.6519 9.13062L4.3479 9.12962Z" fill="#66E1FF"/>
<path d="M15.3479 3.39063H6.9299C6.47633 3.3896 6.0372 3.55002 5.6911 3.84317C5.345 4.13632 5.11451 4.54308 5.0409 4.99063L4.3479 9.13063H9.6079L15.3479 3.39063Z" fill="#C2F3FF"/>
<path d="M4.348 9.12965L5.038 4.98965C5.11153 4.5426 5.34158 4.13625 5.68706 3.84316C6.03254 3.55008 6.47095 3.38934 6.924 3.38965H17.074C17.5271 3.38906 17.9656 3.54955 18.3113 3.84246C18.6569 4.13537 18.8872 4.54162 18.961 4.98865L19.651 9.12865M4.826 9.12965H19.174C19.6765 9.12965 20.1741 9.22865 20.6384 9.42098C21.1026 9.61332 21.5245 9.89523 21.8797 10.2506C22.235 10.606 22.5168 11.0279 22.709 11.4922C22.9013 11.9565 23.0001 12.4541 23 12.9566V17.7387C23 17.9925 22.8992 18.2359 22.7197 18.4154C22.5402 18.5948 22.2968 18.6956 22.043 18.6956H1.957C1.83129 18.6958 1.70678 18.6711 1.59062 18.6231C1.47445 18.575 1.3689 18.5045 1.28001 18.4156C1.19111 18.3268 1.12063 18.2212 1.07258 18.105C1.02453 17.9889 0.999869 17.8644 1 17.7387V12.9557C1 11.9409 1.4031 10.9678 2.12061 10.2503C2.83812 9.53275 3.81128 9.12965 4.826 9.12965Z" stroke="#191919" stroke-linecap="round" stroke-linejoin="round"/>
<path d="M19.652 9.1298L21.087 7.2168H22.522C22.6488 7.21732 22.7702 7.26799 22.8598 7.35774C22.9493 7.44748 22.9997 7.56901 23 7.6958V8.6518C22.9995 8.77841 22.9489 8.89968 22.8594 8.98921C22.7699 9.07874 22.6486 9.12927 22.522 9.1298H19.652ZM4.348 9.1298L2.913 7.2168H1.478C1.35122 7.21732 1.22979 7.26799 1.14023 7.35774C1.05068 7.44748 1.00026 7.56901 1 7.6958V8.6518C1.00053 8.77841 1.05106 8.89968 1.14058 8.98921C1.23011 9.07874 1.35139 9.12927 1.478 9.1298H4.348Z" fill="#FF808C" stroke="#191919" stroke-linecap="round" stroke-linejoin="round"/>
<path d="M5.78205 18.6953V19.6513C5.78219 19.7769 5.75756 19.9014 5.70957 20.0175C5.66159 20.1336 5.59119 20.2391 5.5024 20.328C5.41362 20.4168 5.30818 20.4873 5.19213 20.5354C5.07608 20.5836 4.95168 20.6083 4.82606 20.6083H2.91305C2.65924 20.6083 2.41583 20.5075 2.23635 20.328C2.05688 20.1485 1.95605 19.9051 1.95605 19.6513V18.6953H5.78205ZM22.0441 18.6953V19.6513C22.0442 19.777 22.0195 19.9015 21.9715 20.0177C21.9234 20.1339 21.8529 20.2394 21.764 20.3283C21.6752 20.4172 21.5696 20.4877 21.4534 20.5357C21.3373 20.5838 21.2128 20.6084 21.0871 20.6083H19.1741C18.9204 20.608 18.6773 20.5071 18.498 20.3277C18.3187 20.1482 18.2181 19.905 18.2181 19.6513V18.6953H22.0441Z" fill="#808080" stroke="#191919" stroke-linecap="round" stroke-linejoin="round"/>
<path d="M22.88 12H18.696L18.218 13.913H21.088C21.4795 13.9151 21.8641 13.8108 22.2009 13.6113C22.5377 13.4117 22.8139 13.1244 23 12.78M1.12 12H5.304L5.783 13.913H2.913C2.52116 13.9164 2.13584 13.8127 1.79868 13.613C1.46152 13.4133 1.18534 13.1253 1 12.78" stroke="#191919" stroke-linecap="round" stroke-linejoin="round"/>
<path d="M18.2179 13.913L16.2649 14.693C15.9685 14.8001 15.657 14.8599 15.3419 14.87H8.17393C7.86045 14.8583 7.55231 14.7853 7.26693 14.655L5.78293 13.913L5.30493 12H18.6959L18.2179 13.913Z" fill="#808080" stroke="#191919" stroke-linecap="round" stroke-linejoin="round"/>
<path d="M5.30493 18.6952L6.26093 16.7822H17.7399L18.6959 18.6952H5.30493Z" fill="#B2B2B2" stroke="#191919" stroke-linecap="round" stroke-linejoin="round"/>
<path d="M17.7401 16.7822H21.0871M2.91309 16.7822H6.26109" stroke="#191919" stroke-linecap="round" stroke-linejoin="round"/>
</g>
<defs>
<clipPath id="clip0_4729_12923">
<rect width="24" height="24" fill="white"/>
</clipPath>
</defs>
</svg>
