<svg width="18" height="18" viewBox="0 0 18 18" fill="none" xmlns="http://www.w3.org/2000/svg">
<g clip-path="url(#clip0_4732_13541)">
<path d="M4.67212 7.35059H3.67212C3.60582 7.35059 3.54223 7.32425 3.49534 7.27736C3.44846 7.23048 3.42212 7.16689 3.42212 7.10059V3.60059C3.42212 3.53428 3.44846 3.47069 3.49534 3.42381C3.54223 3.37693 3.60582 3.35059 3.67212 3.35059H4.67212C4.73842 3.35059 4.80201 3.37693 4.8489 3.42381C4.89578 3.47069 4.92212 3.53428 4.92212 3.60059V7.10059C4.92212 7.16689 4.89578 7.23048 4.8489 7.27736C4.80201 7.32425 4.73842 7.35059 4.67212 7.35059Z" fill="#A0041E"/>
<path d="M2.5 8L9 1.5L15.5 8V16.5H2.5V8Z" fill="#FFE8B6"/>
<path d="M9 8H9.5V16H9V8Z" fill="#FFCC4D"/>
<path d="M15.4999 8.49989C15.3673 8.49987 15.2402 8.44717 15.1464 8.35339L8.99992 2.20689L2.85342 8.35339C2.807 8.39982 2.75189 8.43664 2.69124 8.46176C2.63058 8.48689 2.56558 8.49982 2.49992 8.49982C2.43427 8.49982 2.36927 8.48689 2.30861 8.46176C2.24796 8.43664 2.19285 8.39982 2.14642 8.35339C2.1 8.30697 2.06318 8.25186 2.03805 8.19121C2.01293 8.13055 2 8.06554 2 7.99989C2 7.93424 2.01293 7.86923 2.03805 7.80858C2.06318 7.74793 2.1 7.69282 2.14642 7.64639L8.64642 1.14639C8.74019 1.05266 8.86734 1 8.99992 1C9.13251 1 9.25966 1.05266 9.35343 1.14639L15.8534 7.64639C15.9236 7.71623 15.9714 7.80532 15.9908 7.90238C16.0102 7.99944 16.0004 8.10008 15.9625 8.19153C15.9246 8.28298 15.8604 8.36111 15.7781 8.41602C15.6957 8.47092 15.5989 8.50011 15.4999 8.49989Z" fill="#66757F"/>
<path d="M9.00012 8.49992C8.90113 8.50014 8.80432 8.47095 8.72196 8.41605C8.6396 8.36115 8.5754 8.28301 8.53753 8.19156C8.49965 8.10011 8.4898 7.99947 8.50922 7.90241C8.52864 7.80536 8.57647 7.71626 8.64662 7.64642L11.8966 4.39642C11.943 4.35 11.9981 4.31318 12.0588 4.28805C12.1195 4.26293 12.1845 4.25 12.2501 4.25C12.3158 4.25 12.3808 4.26293 12.4414 4.28805C12.5021 4.31318 12.5572 4.35 12.6036 4.39642C12.65 4.44285 12.6869 4.49796 12.712 4.55861C12.7371 4.61927 12.75 4.68427 12.75 4.74992C12.75 4.81558 12.7371 4.88058 12.712 4.94124C12.6869 5.00189 12.65 5.057 12.6036 5.10342L9.35362 8.35343C9.25987 8.4472 9.13271 8.4999 9.00012 8.49992Z" fill="#66757F"/>
<path d="M5 13H7V16H5V13Z" fill="#C1694F"/>
<path d="M5 8.5H7V10.5H5V8.5ZM11.25 8.5H13.25V10.5H11.25V8.5ZM11.25 13H13.25V15H11.25V13Z" fill="#55ACEE"/>
<path d="M16.75 16.75C16.75 16.9489 16.671 17.1397 16.5303 17.2803C16.3897 17.421 16.1989 17.5 16 17.5H2C1.80109 17.5 1.61032 17.421 1.46967 17.2803C1.32902 17.1397 1.25 16.9489 1.25 16.75C1.25 16.5511 1.32902 16.3603 1.46967 16.2197C1.61032 16.079 1.80109 16 2 16H16C16.1989 16 16.3897 16.079 16.5303 16.2197C16.671 16.3603 16.75 16.5511 16.75 16.75Z" fill="#5C913B"/>
</g>
<defs>
<clipPath id="clip0_4732_13541">
<rect width="18" height="18" fill="white"/>
</clipPath>
</defs>
</svg>
