<svg width="19" height="19" viewBox="0 0 19 19" fill="none" xmlns="http://www.w3.org/2000/svg">
<g clip-path="url(#clip0_4837_14496)">
<path d="M8.23584 12.3643L11.4048 12.3889C11.4048 12.3889 11.1526 13.208 10.9438 13.5298C10.6031 14.0517 10.4335 14.3184 10.2886 14.8533C10.0639 15.6767 10.0827 16.3102 10.0827 16.3102C10.0827 16.3102 10.2581 16.2494 10.4712 16.3102C10.7307 16.3842 10.8713 16.5567 10.8481 16.6625C10.8264 16.7567 10.5379 16.6929 10.3378 16.893C10.1798 17.051 10.1189 17.3308 10.0943 17.512C10.0697 17.6947 10.045 17.9252 9.7058 17.973C9.36513 18.0223 8.8563 18.0585 8.74612 17.8875C8.6374 17.7179 8.69683 14.7547 8.69683 14.7547L8.23584 12.3643Z" fill="#307D31"/>
<path d="M8.1997 11.707C8.13882 11.8158 6.70365 12.0738 6.70365 12.0738C6.70365 12.0738 6.22381 12.3304 6.04261 13.1683C5.94403 13.622 5.96577 14.5411 5.88024 14.8629C5.75847 15.3239 5.24819 15.5921 5.27284 15.7008C5.29748 15.8096 5.74253 15.8023 6.0861 15.6516C6.86311 15.3109 6.99938 14.6064 7.25162 14.0004C7.49517 13.4176 7.95616 13.1118 7.95616 13.1118C7.95616 13.1118 7.84744 13.5351 7.89382 14.0018C7.93297 14.4034 8.05909 14.9151 7.89382 15.4124C7.73581 15.8864 7.51401 16.172 7.60244 16.2155C7.66913 16.2474 8.46064 16.1676 8.77667 15.4747C9.12604 14.7093 9.15068 14.0816 9.35943 13.6322C9.58993 13.1349 10.0292 12.9233 10.0292 12.9233C10.0292 12.9233 10.3409 13.106 10.7221 13.6394C11.1469 14.2338 11.502 14.7339 11.7311 15.0413C12.2675 15.7632 13.0111 15.9908 13.0343 15.869C13.0706 15.6748 12.6763 15.3631 12.5965 14.9833C12.4008 14.0482 12.669 13.6003 12.4472 12.8827C12.1283 11.8462 11.3759 11.8274 11.115 11.7781C11.0541 11.7694 8.1997 11.707 8.1997 11.707Z" fill="#5C9823"/>
<path d="M6.85888 6.42782C6.69507 6.28141 4.26833 4.51282 4.26833 4.51282L4.23209 3.43717C4.23209 3.43717 3.63773 2.31368 4.32197 1.47723C4.91633 0.750949 5.7093 0.956801 5.7093 0.956801C5.7093 0.956801 6.1065 0.456668 6.79944 0.421876C7.68519 0.376936 8.11719 1.12206 8.11719 1.12206L12.111 1.77876L14.3536 3.23712C14.3536 3.23712 14.6856 3.12984 14.961 3.3241C15.2481 3.5256 15.1538 3.9489 15.1219 4.13881C15.0915 4.32002 12.1284 6.68441 12.1284 6.68441L12.4386 11.3175L11.4036 12.4729C11.4036 12.4729 11.2586 12.615 10.9614 12.6527C10.7889 12.6744 10.5671 12.6048 10.5671 12.6048L9.92201 10.7522L6.85888 6.42782Z" fill="#96010C"/>
<path d="M12.0544 0.994988L11.5152 1.03558L11.1368 1.35305L11.2716 1.96336C11.2716 1.96336 11.289 2.42 10.9295 2.6389C10.57 2.8578 9.86401 3.21732 9.86401 3.21732L9.37692 4.02333C9.37692 4.02333 9.06379 3.9204 8.55351 3.65802C8.07657 3.41157 7.46626 2.8491 7.46626 2.8491L6.37467 2.77517C6.37467 2.77517 6.16592 2.75633 5.99051 2.94188C5.73827 3.21152 5.82815 3.78269 6.32248 4.30601C6.79797 4.80905 7.82723 5.42225 8.05628 5.59186C8.28532 5.76147 8.63469 5.97892 8.8333 6.09055C9.02465 6.19782 9.2537 6.35149 9.35372 6.33264C9.45375 6.31235 9.60162 5.97168 10.0699 5.6426C10.5381 5.31353 10.9962 5.03519 11.7442 4.7757C12.4922 4.51622 13.2098 4.21759 13.4287 4.07842C13.6476 3.93925 13.349 2.99262 13.0794 2.41421C12.8097 1.83579 12.0733 0.935551 12.0544 0.994988Z" fill="#AF0C1B"/>
<path d="M9.43318 3.47637C9.24908 3.71991 9.28387 4.00405 9.28387 4.00405C9.28387 4.00405 9.68542 4.24469 10.0812 4.38241C10.7988 4.63175 12.4137 4.56217 13.1907 4.2128C13.9677 3.86343 14.3475 3.5619 14.4664 3.19659C14.6056 2.76749 14.7215 1.90059 13.8865 1.23229C12.9298 0.465424 11.4859 0.884376 11.4859 1.08443C11.4859 1.28448 12.0643 1.12502 12.0643 1.8513C12.0643 2.57758 11.4265 3.01683 10.7785 3.10671C10.1305 3.19659 9.71152 3.10671 9.43318 3.47637Z" fill="#DB132C"/>
<path d="M6.12383 2.84878C6.12383 2.84878 6.0499 2.55594 6.29344 2.3211C6.66166 1.96158 7.13135 1.77313 7.39953 1.48319C7.66772 1.19326 8.04898 0.64384 8.98401 0.51627C10.3699 0.326364 11.2658 0.845343 11.4658 1.48319C11.6659 2.12105 11.2861 2.33994 10.8976 2.35009C10.5091 2.36024 10.2931 2.17758 9.58127 2.3008C8.37516 2.50955 7.9562 3.15755 7.84748 3.21844C7.73731 3.27788 7.37924 3.06912 6.8907 2.93865C6.53844 2.84443 6.2833 2.86762 6.12383 2.84878Z" fill="#F71538"/>
<path d="M10.0933 7.01311C10.0933 7.01311 10.3397 6.19405 11.1443 5.67507C11.9503 5.15609 12.5374 5.14304 13.5623 4.6777C14.5872 4.21236 14.9409 3.90648 15.1047 3.79921C15.2729 3.68903 15.4251 3.589 15.5425 3.78181C15.6179 3.90648 15.4875 4.41676 15.141 4.91255C14.7873 5.41848 14.4393 5.69681 14.1755 6.56806C13.8261 7.71764 14.4973 8.76285 13.7812 10.6097C13.5493 11.207 13.0056 11.7535 12.4997 12.1087C11.9938 12.4638 11.2646 12.5436 11.2646 12.5436C11.2646 12.5436 11.5241 12.3624 11.6661 11.6955C11.7357 11.3679 11.8401 10.7866 11.7604 10.1676C11.5328 8.39753 10.0933 7.01311 10.0933 7.01311Z" fill="#CD0E1F"/>
<path d="M4.60182 6.76644C4.61922 7.15495 4.43656 8.56837 4.67286 9.70345C4.85841 10.5964 5.7775 12.1751 7.49825 12.639C9.08128 13.0667 10.7759 12.626 10.7759 12.626C10.7759 12.626 11.4152 11.546 11.092 9.97164C10.7397 8.25524 9.02474 6.97954 7.0474 6.00247C4.67141 4.82824 4.24086 3.41337 4.24086 3.41337C4.24086 3.41337 3.45949 3.20897 3.26379 3.91206C2.96371 4.9906 4.57573 6.17933 4.60182 6.76644Z" fill="#E2122D"/>
</g>
<defs>
<clipPath id="clip0_4837_14496">
<rect width="18.5557" height="18.5557" fill="white"/>
</clipPath>
</defs>
</svg>
