<svg width="16" height="16" viewBox="0 0 16 16" fill="none" xmlns="http://www.w3.org/2000/svg">
<g clip-path="url(#clip0_4732_13568)">
<path d="M0.79126 8.29641V15.5114H15.2988V8.26891C15.2988 8.26891 12.3963 6.26641 12.2625 6.24766C12.1288 6.22891 8.23001 2.66016 8.23001 2.66016L3.93251 6.12641L0.79126 8.29641Z" fill="#F8C778"/>
<path d="M0.79126 8.28867H4.21626L4.21251 15.5037H4.78126L4.78501 6.71992L8.14501 3.76242L11.535 6.86242L11.5263 15.5037H12.0588L12.0675 8.24742L15.2988 8.26992V7.83867L12.3513 6.25867L8.40876 2.79492L4.05626 6.18742L0.79376 7.87617L0.79126 8.28867Z" fill="#F5B03F"/>
<path d="M1.63756 5.32138C1.61506 5.35763 0.743812 7.76013 0.727562 7.81013C0.711312 7.86013 0.752562 7.91888 0.852562 7.92763C0.952562 7.93638 4.40131 7.92763 4.40131 7.92763L4.39131 6.45513C4.39131 6.45513 8.09381 3.12263 8.13506 3.12263C8.17631 3.12263 11.9076 6.54138 11.9163 6.59263C11.9251 6.64263 11.9326 7.87013 11.9326 7.87013C11.9326 7.87013 15.2138 7.89513 15.2813 7.90388C15.3488 7.91263 15.3651 7.82013 15.3063 7.64513C15.2476 7.47013 14.5626 5.35763 14.5126 5.32388C14.4626 5.29013 11.7576 5.29013 11.7576 5.29013C11.7576 5.29013 8.36881 2.17013 8.31006 2.12013C8.25131 2.07013 8.07631 1.99388 7.92131 2.14888C7.78506 2.28513 4.40506 5.31513 4.40506 5.31513C4.40506 5.31513 1.66256 5.27888 1.63756 5.32138Z" fill="#A62714"/>
<path d="M5.4888 10.0735L5.48755 15.5085H10.7825V10.0735C10.7825 10.0735 5.4888 10.0597 5.4888 10.0735Z" fill="#CF6150"/>
<path d="M0.455085 15.5313C0.501335 15.6013 1.04134 15.5688 2.48009 15.5763C3.91884 15.5838 4.33758 15.5813 4.41259 15.5663C4.48633 15.5513 4.54634 15.2275 4.49759 14.9463C4.44384 14.6375 4.25884 14.3463 3.95884 14.2525C3.55759 14.1275 3.31009 14.2425 3.11759 14.175C2.92509 14.1088 2.36134 13.8263 1.79009 13.8638C1.30009 13.895 0.951335 14.0388 0.647585 14.4863C0.321335 14.9675 0.425085 15.4863 0.455085 15.5313ZM15.7613 15.5013C15.8351 15.45 15.8288 14.03 14.8413 13.9213C14.1001 13.84 13.9063 14.1588 13.7813 14.1588C13.6551 14.1588 13.1751 13.925 12.5126 14.1813C11.6888 14.5 11.7038 15.4275 11.7338 15.5163C11.7638 15.605 12.6163 15.5825 13.7876 15.59C14.9588 15.5975 15.6651 15.5688 15.7613 15.5013Z" fill="#7DB240"/>
<path d="M1.44627 8.7041H3.78252V10.5854H1.41502C1.41502 10.5854 1.43002 8.7191 1.44627 8.7041ZM1.41502 11.4641H3.74127V13.2841H1.39502C1.39502 13.2854 1.40502 11.4541 1.41502 11.4641Z" fill="#3E737C"/>
<path d="M1.80001 9.04785H3.38751V10.2916H1.78001C1.78001 10.2916 1.76876 9.05785 1.80001 9.04785ZM1.72876 11.7679H3.40751V12.9716H1.72876V11.7679Z" fill="#A7D0D7"/>
<path d="M12.4587 8.8148H14.785V10.6861H12.4487C12.4487 10.6861 12.4587 8.7848 12.4587 8.8148Z" fill="#3E737C"/>
<path d="M12.7825 9.13867H14.4512V10.3524H12.7825V9.13867Z" fill="#A7D0D7"/>
<path d="M12.4288 11.5752H14.745V13.3452H12.4288C12.4288 13.3452 12.4138 11.5914 12.4288 11.5752Z" fill="#3E737C"/>
<path d="M12.7926 11.8985V12.991H14.3801V11.8885C14.3801 11.8885 12.7776 11.8835 12.7926 11.8985Z" fill="#A7D0D7"/>
<path d="M6.2576 15.511L6.25635 10.666H10.0688V15.511H6.2576Z" fill="#3E737C"/>
<path d="M9.61754 11.6551V11.0176H6.72754V11.6551H9.61754ZM6.72754 11.9738H9.61754V13.6326H6.72754V11.9738ZM6.72754 13.9738H9.61754V14.8413H6.72754V13.9738Z" fill="#A7D0D7"/>
<path d="M8.03512 11.8316V15.0954H8.36512V11.7979C8.36512 11.7979 8.05762 11.8316 8.03512 11.8316ZM8.05762 5.00789C6.76137 5.01914 5.89262 5.98539 5.95887 7.22789C6.02262 8.43539 6.98137 9.19289 8.09012 9.16164C9.25512 9.12914 10.0901 8.19414 10.1226 7.08539C10.1551 5.97664 9.25512 4.99789 8.05762 5.00789Z" fill="#3E737C"/>
<path d="M8.02511 5.38086C6.97011 5.38086 6.26637 6.18336 6.31137 7.14961C6.35387 8.08211 6.98137 8.78711 8.05887 8.78711C9.04762 8.78711 9.69761 7.97461 9.71761 7.13836C9.73886 6.22586 9.05761 5.38086 8.02511 5.38086Z" fill="white"/>
<path d="M7.71739 7.18239C7.71739 7.18239 7.10489 7.69739 7.07114 7.75739C7.03739 7.81739 7.03864 7.91614 7.11989 7.98239C7.20239 8.04864 7.28364 8.00989 7.33364 7.97114C7.38239 7.93239 8.02864 7.40239 8.02864 7.40239C8.02864 7.40239 8.23739 7.39864 8.28614 7.15114C8.32489 6.95364 8.18239 6.86114 8.18239 6.86114C8.18239 6.86114 8.15989 5.67864 8.14989 5.59114C8.14114 5.52614 8.07364 5.46489 8.01364 5.47114C7.95364 5.47614 7.89364 5.50989 7.88739 5.60739C7.88114 5.70489 7.87489 6.83739 7.87489 6.83739C7.87489 6.83739 7.78739 6.86989 7.73864 6.96364C7.68989 7.05614 7.71739 7.18239 7.71739 7.18239Z" fill="#2F2F2F"/>
</g>
<defs>
<clipPath id="clip0_4732_13568">
<rect width="16" height="16" fill="white"/>
</clipPath>
</defs>
</svg>
