<svg width="24" height="24" viewBox="0 0 24 24" fill="none" xmlns="http://www.w3.org/2000/svg">
<path d="M6.75 9C6.94891 9 7.13968 9.07902 7.28033 9.21967C7.42098 9.36032 7.5 9.55109 7.5 9.75V14.25C7.5 14.4489 7.42098 14.6397 7.28033 14.7803C7.13968 14.921 6.94891 15 6.75 15C6.55109 15 6.36032 14.921 6.21967 14.7803C6.07902 14.6397 6 14.4489 6 14.25V9.75C6 9.55109 6.07902 9.36032 6.21967 9.21967C6.36032 9.07902 6.55109 9 6.75 9ZM17.25 12C17.25 12.348 17.1705 12.675 17.031 12.9705L17.781 13.7205C17.9216 13.8613 18.0006 14.0523 18.0004 14.2513C18.0003 14.4503 17.9211 14.6411 17.7803 14.7817C17.6394 14.9224 17.4485 15.0013 17.2495 15.0012C17.0504 15.001 16.8596 14.9218 16.719 14.781L15.969 14.031C15.6662 14.1756 15.3348 14.2507 14.9993 14.2507C14.6637 14.2507 14.3323 14.1756 14.0295 14.031L13.2795 14.781C13.1387 14.9216 12.9477 15.0006 12.7487 15.0004C12.5497 15.0003 12.3589 14.9211 12.2183 14.7803C12.0776 14.6394 11.9987 14.4485 11.9988 14.2495C11.999 14.0504 12.0782 13.8596 12.219 13.719L12.969 12.969C12.8244 12.6662 12.7493 12.3348 12.7493 11.9992C12.7493 11.6637 12.8244 11.3323 12.969 11.0295L12.219 10.2795C12.1494 10.2098 12.0941 10.127 12.0565 10.0359C12.0189 9.94486 11.9995 9.84727 11.9996 9.74872C11.9997 9.65017 12.0191 9.55261 12.0569 9.46159C12.0947 9.37057 12.15 9.28788 12.2197 9.21825C12.2895 9.14862 12.3722 9.0934 12.4633 9.05575C12.5544 9.0181 12.652 8.99876 12.7505 8.99883C12.8491 8.9989 12.9466 9.01838 13.0377 9.05616C13.1287 9.09393 13.2114 9.14927 13.281 9.219L14.031 9.969C14.3338 9.82436 14.6652 9.74929 15.0007 9.74929C15.3363 9.74929 15.6677 9.82436 15.9705 9.969L16.7205 9.219C16.7902 9.14937 16.873 9.09415 16.9641 9.0565C17.0551 9.01885 17.1527 8.99951 17.2513 8.99958C17.3498 8.99965 17.4474 9.01913 17.5384 9.05691C17.6294 9.09468 17.7121 9.15002 17.7817 9.21975C17.8514 9.28948 17.9066 9.37225 17.9442 9.46332C17.9819 9.55439 18.0012 9.65198 18.0012 9.75053C18.0011 9.84908 17.9816 9.94664 17.9438 10.0377C17.9061 10.1287 17.8507 10.2114 17.781 10.281L17.031 11.031C17.172 11.3235 17.25 11.652 17.25 12ZM15.75 12C15.75 11.8011 15.671 11.6103 15.5303 11.4697C15.3897 11.329 15.1989 11.25 15 11.25C14.8011 11.25 14.6103 11.329 14.4697 11.4697C14.329 11.6103 14.25 11.8011 14.25 12C14.25 12.1989 14.329 12.3897 14.4697 12.5303C14.6103 12.671 14.8011 12.75 15 12.75C15.1989 12.75 15.3897 12.671 15.5303 12.5303C15.671 12.3897 15.75 12.1989 15.75 12ZM1.5 8.25C1.5 7.25544 1.89509 6.30161 2.59835 5.59835C3.30161 4.89509 4.25544 4.5 5.25 4.5H18.75C19.7446 4.5 20.6984 4.89509 21.4016 5.59835C22.1049 6.30161 22.5 7.25544 22.5 8.25V15.75C22.5 16.7446 22.1049 17.6984 21.4016 18.4017C20.6984 19.1049 19.7446 19.5 18.75 19.5H5.25C4.25544 19.5 3.30161 19.1049 2.59835 18.4017C1.89509 17.6984 1.5 16.7446 1.5 15.75V8.25ZM5.25 6C4.65326 6 4.08097 6.23705 3.65901 6.65901C3.23705 7.08097 3 7.65326 3 8.25V15.75C3 16.3467 3.23705 16.919 3.65901 17.341C4.08097 17.7629 4.65326 18 5.25 18H18.75C19.3467 18 19.919 17.7629 20.341 17.341C20.7629 16.919 21 16.3467 21 15.75V8.25C21 7.65326 20.7629 7.08097 20.341 6.65901C19.919 6.23705 19.3467 6 18.75 6H5.25Z" fill="#2E2E2E"/>
</svg>
