<svg width="16" height="16" viewBox="0 0 16 16" fill="none" xmlns="http://www.w3.org/2000/svg">
<path d="M2.505 14.5167H13.495C14.325 14.5167 15 13.8417 15 13.0117V10.0117C15 9.7465 14.8946 9.49215 14.7071 9.30461C14.5196 9.11708 14.2652 9.01172 14 9.01172H2C1.73478 9.01172 1.48043 9.11708 1.29289 9.30461C1.10536 9.49215 1 9.7465 1 10.0117V13.0117C1 13.8467 1.675 14.5167 2.505 14.5167Z" fill="#FFB02E"/>
<path d="M14 8.51758H2C1.73478 8.51758 1.48043 8.62294 1.29289 8.81047C1.10536 8.99801 1 9.25236 1 9.51758V10.5176H14.995V9.51758C14.995 8.96758 14.55 8.51758 14 8.51758Z" fill="#26EAFC"/>
<path d="M12.1251 3.48711L3.56011 12.0521C3.46011 12.1521 3.46011 12.3121 3.56011 12.4121C3.66011 12.5121 3.82011 12.5121 3.92011 12.4121L12.4851 3.84711C12.5851 3.74711 12.5851 3.58711 12.4851 3.48711C12.3851 3.38711 12.2251 3.38711 12.1251 3.48711Z" fill="#7D4533"/>
<path d="M11.41 12.4722C11.79 12.8522 12.385 12.8822 12.67 12.5122C14.62 9.96216 14.415 6.28216 12.065 3.93216C9.715 1.58216 6.025 1.37216 3.475 3.32216C3.105 3.60216 3.135 4.19716 3.515 4.57716L3.895 4.95716L9.485 6.49716L11.025 12.0872L11.41 12.4722Z" fill="#F8312F"/>
<path d="M11.02 12.0873C13.56 9.54728 14.02 5.89728 12.05 3.92728C10.08 1.95728 6.43502 2.41728 3.89502 4.95728L11.02 12.0873Z" fill="#F4F4F4"/>
<path d="M9.23505 10.2972C11.775 7.75724 13.035 4.90224 12.05 3.92224C11.065 2.94224 8.21505 4.20224 5.67505 6.74224L9.23505 10.2972Z" fill="#F8312F"/>
</svg>
